<svg width="138" height="28" viewBox="0 0 138 28" fill="none" xmlns="http://www.w3.org/2000/svg">
<g clip-path="url(#clip0_1_309)">
<path fill-rule="evenodd" clip-rule="evenodd" d="M14.6634 3.1969L16.6094 0L22.1265 3.0219L20.1812 6.2181C19.8395 6.7788 20.3509 7.4606 21.021 7.3381L24.7492 6.6556L25.9558 12.5895L22.2276 13.2713C16.1969 14.3745 11.5927 8.2425 14.6634 3.1969Z" fill="#053858"/>
<path fill-rule="evenodd" clip-rule="evenodd" d="M11.2924 24.8031L9.34636 28L3.82858 24.9788L5.7746 21.7819C6.11628 21.2212 5.60487 20.5394 4.93405 20.6619L1.20658 21.3437L0 15.4105L3.72821 14.7287C9.75889 13.6255 14.3623 19.7575 11.2924 24.8031Z" fill="#053858"/>
<path fill-rule="evenodd" clip-rule="evenodd" d="M11.4606 3.1969L9.51536 0L3.99757 3.0219L5.94359 6.2181C6.28453 6.7788 5.77386 7.4606 5.10305 7.3381L1.37483 6.6556L0.169731 12.5895L3.89721 13.2713C9.92862 14.3745 14.5328 8.2425 11.4614 3.1969H11.4606Z" fill="#053858"/>
<path fill-rule="evenodd" clip-rule="evenodd" d="M14.5011 24.8031L16.4456 28L21.9634 24.9788L20.0174 21.7819C19.6764 21.2212 20.1871 20.5394 20.8579 20.6619L24.5854 21.3437L25.792 15.4105L22.0638 14.7287C16.0331 13.6255 11.4296 19.7575 14.4996 24.8031H14.5011Z" fill="#053858"/>
<path d="M120.373 21.1071V15.1571C120.373 14.3325 120.573 13.5926 120.973 12.9381C121.387 12.2703 121.974 11.7467 122.733 11.3666C123.492 10.9872 124.396 10.7975 125.445 10.7975C125.934 10.793 126.422 10.8523 126.894 10.9739C127.336 11.0789 127.736 11.2294 128.095 11.4254C128.468 11.6088 128.785 11.8314 129.048 12.0932H129.089C129.37 11.8276 129.691 11.6027 130.041 11.4254C130.426 11.2246 130.837 11.0728 131.263 10.9739C131.743 10.8532 132.237 10.7939 132.733 10.7975C133.782 10.7975 134.686 10.9865 135.445 11.3666C136.204 11.7467 136.79 12.2696 137.204 12.9381C137.619 13.5926 137.826 14.3318 137.826 15.1571V21.1071H134.596V15.2551C134.596 14.9282 134.506 14.6335 134.327 14.3717C134.163 14.0979 133.927 13.8681 133.644 13.7039C133.345 13.5312 133 13.4426 132.65 13.4484C132.277 13.4484 131.939 13.5338 131.636 13.7039C131.352 13.8679 131.117 14.0977 130.952 14.3717C130.785 14.6387 130.699 14.9445 130.704 15.2551V21.1071H127.495V15.2551C127.495 14.9282 127.405 14.6335 127.226 14.3717C127.057 14.0939 126.814 13.8634 126.522 13.7039C126.222 13.5312 125.878 13.4426 125.528 13.4484C125.155 13.4484 124.817 13.5338 124.514 13.7039C124.23 13.8679 123.995 14.0977 123.83 14.3717C123.663 14.6388 123.577 14.9445 123.582 15.2551V21.1071H120.373ZM113.354 21.343C112.264 21.343 111.318 21.147 110.518 20.7536C109.731 20.3476 109.124 19.8044 108.696 19.124C108.268 18.4303 108.054 17.6638 108.054 16.8259V11.0327H111.263V16.7475C111.263 17.101 111.353 17.4286 111.532 17.7296C111.711 18.0173 111.953 18.2532 112.257 18.4366C112.574 18.6067 112.933 18.6921 113.333 18.6921C113.72 18.6921 114.065 18.6067 114.369 18.4366C114.686 18.2532 114.935 18.0173 115.114 17.7296C115.293 17.4286 115.383 17.101 115.383 16.7475V11.0327H118.592V16.8259C118.592 17.6638 118.385 18.4303 117.971 19.124C117.557 19.8044 116.957 20.3483 116.17 20.7536C115.397 21.1463 114.458 21.343 113.354 21.343ZM97.7173 21.1071V18.6921H102.831C102.969 18.6921 103.093 18.6655 103.204 18.613C103.314 18.5479 103.404 18.4625 103.473 18.3582C103.54 18.255 103.576 18.136 103.576 18.0145C103.576 17.893 103.54 17.774 103.473 17.6708C103.408 17.5698 103.315 17.4881 103.204 17.4349C103.092 17.3692 102.963 17.3352 102.831 17.3369H100.968C100.277 17.3369 99.6493 17.2319 99.084 17.0226C98.5469 16.8116 98.0864 16.4567 97.7586 16.0013C97.4413 15.5302 97.2826 14.9212 97.2826 14.175C97.2826 13.5989 97.4273 13.0753 97.7173 12.6042C98.019 12.1345 98.4386 11.743 98.9386 11.4646C99.4605 11.1773 100.054 11.0282 100.657 11.0327H105.771V13.468H101.154C100.971 13.4645 100.793 13.5279 100.657 13.6451C100.597 13.7012 100.549 13.7685 100.517 13.8427C100.485 13.917 100.469 13.9967 100.471 14.077C100.471 14.2604 100.533 14.4172 100.657 14.5481C100.793 14.6653 100.971 14.7287 101.154 14.7252H102.976C103.749 14.7252 104.411 14.8365 104.963 15.0584C105.529 15.2684 105.964 15.6086 106.268 16.0804C106.585 16.5515 106.744 17.1598 106.744 17.906C106.744 18.4954 106.585 19.0323 106.268 19.516C105.967 19.9981 105.539 20.3976 105.025 20.6752C104.515 20.9636 103.935 21.1071 103.287 21.1071H97.7173ZM90.7258 10.7975C91.6231 10.7975 92.4165 10.9347 93.1065 11.2098C93.7842 11.4549 94.3935 11.8446 94.8872 12.3487C95.3904 12.8426 95.7783 13.4315 96.0259 14.077C96.2878 14.7315 96.4192 15.4581 96.4192 16.2568C96.4192 17.2515 96.1985 18.1356 95.7565 18.9077C95.3482 19.6476 94.7322 20.2661 93.9765 20.6948C93.2172 21.1267 92.3338 21.343 91.3265 21.343C90.8985 21.343 90.4911 21.2905 90.1044 21.1862C89.7382 21.084 89.3896 20.9317 89.0698 20.734C88.7682 20.54 88.5083 20.2934 88.3038 20.0074H88.241V25.3694H85.0324V16.2561C85.0324 15.1431 85.267 14.1806 85.7364 13.3693C86.1913 12.5707 86.882 11.9154 87.7237 11.4835C88.5798 11.0257 89.5804 10.7968 90.7258 10.7968V10.7975ZM90.7258 13.4288C90.2291 13.4288 89.7945 13.5464 89.4218 13.7823C89.0624 14.0049 88.7864 14.3192 88.593 14.7252C88.4004 15.1172 88.3038 15.5631 88.3038 16.0601C88.3038 16.5578 88.4004 17.003 88.593 17.3957C88.7864 17.7884 89.0624 18.1027 89.4218 18.3386C89.7945 18.5612 90.2291 18.6725 90.7258 18.6725C91.2224 18.6725 91.6504 18.5605 92.0091 18.3386C92.37 18.101 92.6564 17.7752 92.8378 17.3957C93.0445 17.003 93.1478 16.5578 93.1478 16.0601C93.1478 15.5631 93.0445 15.1179 92.8378 14.7252C92.6445 14.3192 92.3685 14.0042 92.0091 13.7823C91.6504 13.5464 91.2224 13.4288 90.7258 13.4288ZM80.1559 21.1071V11.0327H83.3859V21.1071H80.1559ZM81.7705 9.89379C81.2599 9.89379 80.8186 9.71739 80.4459 9.36389C80.0732 9.01039 79.8865 8.59109 79.8865 8.10669C79.8865 7.62229 80.0732 7.20369 80.4459 6.85019C80.8186 6.48339 81.2599 6.29999 81.7705 6.29999C82.2812 6.29999 82.7232 6.48339 83.0959 6.85019C83.4686 7.20369 83.6546 7.62229 83.6546 8.10669C83.6546 8.59109 83.4686 9.00969 83.0959 9.36389C82.7232 9.71739 82.2812 9.89379 81.7705 9.89379ZM73.1363 21.343C72.0463 21.343 71.0663 21.1141 70.1962 20.6556C69.3427 20.2118 68.6285 19.5613 68.1262 18.7705C67.6296 17.9718 67.3809 17.0751 67.3809 16.0797C67.3809 15.0717 67.6296 14.175 68.1262 13.3896C68.6285 12.5987 69.3427 11.9483 70.1962 11.5045C71.0663 11.0327 72.0463 10.7975 73.1363 10.7975C74.227 10.7975 75.1997 11.0327 76.0557 11.5045C76.9062 11.9452 77.6145 12.5968 78.105 13.3896C78.6157 14.175 78.8711 15.0717 78.8711 16.0797C78.8711 17.0751 78.6157 17.9718 78.105 18.7705C77.6145 19.5633 76.9062 20.2149 76.0557 20.6556C75.1864 21.1141 74.213 21.343 73.1363 21.343ZM73.1363 18.6921C73.647 18.6921 74.089 18.5738 74.4617 18.3386C74.8345 18.1029 75.1345 17.7775 75.331 17.3957C75.5384 17.003 75.6417 16.5578 75.6417 16.0601C75.6417 15.5757 75.5384 15.1375 75.331 14.7441C75.1344 14.3625 74.8344 14.0373 74.4617 13.8019C74.089 13.566 73.647 13.4484 73.1363 13.4484C72.6256 13.4484 72.177 13.566 71.791 13.8019C71.418 14.0375 71.1178 14.3629 70.9209 14.7448C70.7101 15.1543 70.6039 15.6051 70.611 16.0608C70.611 16.5578 70.7143 17.003 70.9209 17.3957C71.1178 17.7775 71.4181 18.1029 71.791 18.3386C72.177 18.5738 72.6256 18.6921 73.1363 18.6921ZM56.9519 25.0943V22.4819H62.2513C62.4587 22.4819 62.6313 22.4168 62.7693 22.2859C62.8366 22.2295 62.89 22.1597 62.9257 22.0816C62.9614 22.0035 62.9786 21.9188 62.976 21.8337V19.6147H62.914C62.6518 19.9039 62.3529 20.1611 62.024 20.3805C61.7199 20.5905 61.3746 20.7473 60.9886 20.8523C60.5778 20.9618 60.1526 21.0146 59.726 21.0091C58.7873 21.0091 57.9452 20.7991 57.1999 20.3805C56.4686 19.9486 55.8885 19.3529 55.4605 18.5934C55.0472 17.8346 54.8399 16.9701 54.8399 16.0013C54.8399 15.0458 55.0539 14.175 55.4819 13.3896C55.9232 12.6042 56.5652 11.9756 57.4073 11.5045C58.2485 11.0327 59.2773 10.7975 60.492 10.7975C61.6513 10.7975 62.652 11.0264 63.494 11.4849C64.3396 11.9202 65.0309 12.5825 65.4814 13.3889C65.9507 14.2009 66.1854 15.1571 66.1854 16.2568V22.148C66.1854 23.051 65.9028 23.765 65.3367 24.2886C64.7847 24.8255 64.0187 25.0936 63.0387 25.0936L56.9519 25.0943ZM60.5126 18.4562C61.0093 18.4562 61.4373 18.3512 61.7967 18.1419C62.1513 17.9235 62.4371 17.6183 62.624 17.2585C62.8202 16.8798 62.9196 16.4625 62.914 16.0405C62.914 15.5694 62.818 15.1375 62.6247 14.7448C62.4313 14.3521 62.1553 14.0441 61.796 13.8215C61.4373 13.5856 61.0093 13.468 60.5119 13.468C60.0293 13.468 59.6012 13.5793 59.2286 13.8019C58.8699 14.0245 58.5939 14.3255 58.4006 14.7049C58.208 15.085 58.1113 15.5099 58.1113 15.9817C58.1113 16.4402 58.2072 16.8588 58.4006 17.2389C58.5939 17.605 58.8699 17.8997 59.2293 18.1223C59.6012 18.3449 60.0293 18.4562 60.5126 18.4562ZM48.317 21.343C47.227 21.343 46.247 21.1141 45.3777 20.6556C44.5238 20.2119 43.8093 19.5615 43.3069 18.7705C42.8103 17.9718 42.5616 17.0751 42.5616 16.0797C42.5616 15.0717 42.8103 14.175 43.3069 13.3896C43.8093 12.5986 44.5238 11.9481 45.3777 11.5045C46.247 11.0327 47.227 10.7975 48.317 10.7975C49.4077 10.7975 50.3803 11.0327 51.2364 11.5045C52.0868 11.9453 52.7951 12.5968 53.2857 13.3896C53.7964 14.175 54.0517 15.0717 54.0517 16.0797C54.0517 17.0751 53.7964 17.9718 53.2857 18.7705C52.7951 19.5633 52.0868 20.2148 51.2364 20.6556C50.3671 21.1141 49.3937 21.343 48.317 21.343ZM48.317 18.6921C48.8276 18.6921 49.269 18.5738 49.6424 18.3386C50.015 18.1028 50.315 17.7774 50.5117 17.3957C50.7183 17.003 50.8216 16.5578 50.8216 16.0601C50.8216 15.5757 50.7183 15.1375 50.5117 14.7441C50.3149 14.3626 50.0149 14.0375 49.6424 13.8019C49.2697 13.566 48.8276 13.4484 48.317 13.4484C47.8063 13.4484 47.3576 13.566 46.9717 13.8019C46.5987 14.0375 46.2985 14.3629 46.1016 14.7448C45.8908 15.1543 45.7846 15.6051 45.7916 16.0608C45.7916 16.5578 45.895 17.003 46.1016 17.3957C46.2985 17.7775 46.5988 18.1029 46.9717 18.3386C47.3576 18.5738 47.8063 18.6921 48.317 18.6921ZM38.04 21.1071C37.1427 21.1071 36.356 20.9181 35.68 20.538C35.0226 20.1764 34.4793 19.6543 34.1067 19.026C33.734 18.3974 33.5473 17.703 33.5473 16.9442V7.36049H37.0253V17.1794C37.0253 17.4944 37.1434 17.7688 37.3773 18.0047C37.612 18.2399 37.9013 18.3582 38.2467 18.3582H42.0767V21.1071H38.04Z" fill="#053858"/>
</g>
<defs>
<clipPath id="clip0_1_309">
<rect width="138" height="28" fill="white"/>
</clipPath>
</defs>
</svg>
