<svg width="19" height="18" viewBox="0 0 19 18" fill="none" xmlns="http://www.w3.org/2000/svg">
<path d="M0.499329 13.501C0.499329 13.0868 0.83514 12.7509 1.24938 12.7509H4.99966C5.4139 12.7509 5.74971 13.0868 5.74971 13.501V17.2513C5.74971 17.6655 5.4139 18.0013 4.99966 18.0013H1.24938C0.835139 18.0013 0.499329 17.6655 0.499329 17.2513V13.501Z" fill="#F5F7F9"/>
<path d="M4.24959 9.75057C4.24959 9.33633 4.5854 9.00052 4.99965 9.00052H8.74992C9.16416 9.00052 9.49997 9.33633 9.49997 9.75057V13.5008C9.49997 13.9151 9.16416 14.2509 8.74992 14.2509H4.99965C4.5854 14.2509 4.24959 13.9151 4.24959 13.5008V9.75057Z" fill="#F5F7F9"/>
<path d="M7.99985 6.00039C7.99985 5.58615 8.33566 5.25034 8.74991 5.25034H12.5002C12.9144 5.25034 13.2502 5.58615 13.2502 6.00039V9.75066C13.2502 10.1649 12.9144 10.5007 12.5002 10.5007H8.74991C8.33566 10.5007 7.99985 10.1649 7.99985 9.75066V6.00039Z" fill="#F5F7F9"/>
<path d="M13.2503 13.501C13.2503 13.0868 13.5861 12.7509 14.0003 12.7509H17.7506C18.1648 12.7509 18.5007 13.0868 18.5007 13.501V17.2513C18.5007 17.6655 18.1648 18.0013 17.7506 18.0013H14.0003C13.5861 18.0013 13.2503 17.6655 13.2503 17.2513V13.501Z" fill="#5235E8"/>
<path d="M13.2503 0.750054C13.2503 0.33581 13.5861 0 14.0003 0H17.7506C18.1648 0 18.5007 0.335811 18.5007 0.750055V4.50033C18.5007 4.91457 18.1648 5.25038 17.7506 5.25038H14.0003C13.5861 5.25038 13.2503 4.91457 13.2503 4.50033V0.750054Z" fill="#5235E8"/>
</svg>
