<svg width="51" height="18" viewBox="0 0 51 18" fill="none" xmlns="http://www.w3.org/2000/svg">
<path d="M1.77067 17.8753C0.742093 17.7415 0.0968595 17.1092 0.00809681 16.1479C-0.124135 14.7159 1.37031 13.0024 3.97498 11.5996C5.08341 11.0026 5.80664 10.7753 7.4903 10.4948C8.1462 10.3856 8.70514 10.2739 8.73238 10.2467C8.75962 10.2195 8.83871 10.0411 8.90813 9.85012C9.35665 8.61654 9.24908 6.43961 8.60901 3.79674L8.45039 3.14179L8.24191 3.175C8.12725 3.19326 7.83817 3.29051 7.59951 3.39109C6.3365 3.92342 6.05272 3.94053 5.70161 3.50554C5.55942 3.32938 5.55681 3.31586 5.61579 3.06079L5.67661 2.79771L6.0127 2.67136C6.19755 2.60186 6.61298 2.47408 6.93587 2.3874C7.59482 2.2105 7.99774 2.01641 8.09914 1.82705C8.14934 1.73331 8.16047 1.55146 8.14127 1.13903C8.12359 0.759397 8.13493 0.535438 8.1764 0.44525C8.25917 0.265229 8.59722 -0.0196649 8.70345 0.00107182C8.8317 0.0261058 8.96078 0.318926 9.07449 0.842808C9.13039 1.10034 9.21233 1.38092 9.25657 1.46634L9.33702 1.62163L9.68069 1.48894C10.3174 1.24311 10.9166 1.06259 11.0958 1.06259C11.2487 1.06259 11.2924 1.09206 11.4062 1.27191C11.598 1.57529 11.6233 1.80139 11.4822 1.95133C11.3393 2.10325 10.9109 2.29597 10.1126 2.56755C9.76798 2.68476 9.47535 2.79135 9.46227 2.80441C9.44919 2.81747 9.5545 3.33105 9.69629 3.9457C10.0951 5.67469 10.2093 6.40729 10.2397 7.43307C10.2675 8.37224 10.1973 9.18472 10.0018 10.1851C9.94983 10.4514 9.91161 10.6741 9.91692 10.6799C9.92222 10.6858 10.0939 10.7165 10.2983 10.7481C10.8189 10.8288 11.4448 11.0505 12.0658 11.3742C12.5159 11.6089 12.6011 11.6382 12.6288 11.5677C12.6467 11.5221 12.7608 11.1958 12.8823 10.8428C13.1802 9.97696 13.3254 9.70875 13.6963 9.33839C14.0731 8.96223 14.507 8.6738 15.0415 8.44418C15.4002 8.29011 15.4816 8.27484 15.9461 8.27443C16.5271 8.27392 16.7156 8.34407 17.0614 8.68944C17.3329 8.96071 17.4126 9.13647 17.4405 9.52601C17.4703 9.94125 17.3684 10.3213 17.0868 10.8464C16.5665 11.8161 15.5172 12.9172 14.9573 13.0808C14.8554 13.1105 14.5245 13.1509 14.222 13.1705C13.6935 13.2047 13.6733 13.2103 13.7042 13.3137C13.9131 14.012 14.4712 14.5141 15.1293 14.5956C15.4655 14.6372 16.0351 14.5152 16.4994 14.3022C17.6908 13.7554 19.4618 11.8837 20.5249 10.0477C20.8213 9.53584 21.2778 8.50774 21.3181 8.26124L21.3452 8.0956L20.8408 8.0946C19.9978 8.09291 19.1672 7.93273 18.4449 7.63252C18.0004 7.4478 17.2473 6.99139 17.2495 6.90808C17.2504 6.87448 17.2845 6.80294 17.3253 6.74909C17.3979 6.65335 17.4055 6.65416 17.6683 6.78586C17.978 6.94105 19.0037 7.20096 19.64 7.28549C20.2623 7.36817 21.0718 7.32112 21.4991 7.17745L21.8449 7.06115L22.0233 6.68582C22.1215 6.4794 22.3079 5.98864 22.4376 5.59525C22.6415 4.9771 22.7047 4.8454 22.9031 4.62501C23.2225 4.2704 23.3327 4.29107 23.3934 4.71694C23.4365 5.01898 23.4315 5.0441 23.2822 5.27754C23.0181 5.69043 22.7641 6.42583 22.7621 6.78328C22.7613 6.92093 22.7668 6.92344 23.0723 6.92344C23.4925 6.92344 24.174 6.77838 25.3648 6.43546C26.5981 6.08031 27.1354 6.02601 27.5089 6.21878C27.7498 6.3431 27.7718 6.40582 27.6694 6.67477C27.6243 6.79326 27.532 6.82125 26.1995 7.12055C24.3666 7.53224 22.7392 7.92924 22.5345 8.01464C22.3866 8.07632 22.3592 8.12784 22.2026 8.63661C21.9053 9.60324 21.7843 10.2854 21.7746 11.0515C21.7676 11.6016 21.7848 11.7972 21.8605 12.0275C21.9678 12.3536 22.1878 12.6473 22.4115 12.7627C22.6431 12.8823 23.2384 12.8654 23.6038 12.7289C23.9623 12.595 24.4972 12.2897 24.5192 12.2066C24.5278 12.1739 24.5855 11.9064 24.6475 11.6121C24.9556 10.1485 25.6318 8.71588 26.2961 8.11965C26.703 7.75439 27.0008 7.62361 27.4866 7.59686C27.8316 7.57785 27.9318 7.59128 28.1055 7.67977C28.5285 7.89516 28.7081 8.24881 28.705 8.86006C28.6999 9.88947 28.0093 10.8695 26.4624 12.0428C25.3801 12.8637 25.3496 12.9087 25.5637 13.3704C25.737 13.7441 26.056 13.9573 26.5947 14.0593C27.51 14.2326 28.194 13.5457 28.9556 11.6886C29.5653 10.2015 29.8139 9.34969 31.3126 3.61078C31.6626 2.27057 31.8154 1.78734 32.0344 1.32763C32.2428 0.890441 32.3642 0.806263 32.606 0.931143C32.8942 1.07992 32.8855 1.16117 32.4082 2.76988C32.2418 3.33048 32.0586 4.06436 32.0011 4.40072C31.7773 5.70768 31.5391 7.94098 31.441 9.65C31.4105 10.1826 31.3632 10.9427 31.336 11.3393C31.1441 14.1366 31.5349 16.0433 32.3842 16.4537C32.7117 16.612 33.069 16.5727 33.5761 16.3225C34.0374 16.0949 34.4487 15.7 34.9253 15.0273L35.2642 14.549L35.1256 14.4649C35.0494 14.4187 34.792 14.3056 34.5535 14.2138C33.0246 13.6248 32.3892 13.1454 31.9412 12.2428C31.7486 11.8549 31.7239 11.7628 31.7048 11.3637C31.6856 10.9647 31.6968 10.8916 31.8115 10.6662C31.9919 10.3116 32.3009 9.97957 32.6755 9.73778C33.1097 9.45752 33.5033 9.34714 34.0433 9.3542C35.0508 9.36736 35.6774 9.86352 36.026 10.9241C36.1976 11.4464 36.2531 11.7494 36.3638 12.7678C36.4069 13.1651 36.4643 13.548 36.4912 13.6187C36.6095 13.9294 38.0148 14.113 38.9383 13.9384C39.1738 13.8939 39.3746 13.8494 39.3845 13.8395C39.3944 13.8296 39.4379 13.5021 39.481 13.1118C39.5869 12.1536 39.6436 11.8084 39.7689 11.3573C40.0671 10.2835 40.6395 9.35184 41.57 8.42551C42.3161 7.6828 42.5017 7.57901 43.1441 7.54567C44.0594 7.49816 44.4923 7.78341 44.7428 8.5992C44.7826 8.72866 44.8853 9.23214 44.9711 9.71804C45.2678 11.3985 45.4263 11.6941 46.4039 12.389C46.6181 12.5413 47.0769 12.8015 47.4234 12.9672C48.8395 13.6443 49.997 14.2551 50.0128 14.3334C50.0268 14.4026 49.9706 14.4151 49.6472 14.4151C48.3965 14.4151 46.6227 13.691 44.9934 12.5153C44.6068 12.2364 44.5218 12.1942 44.4574 12.2492C43.3763 13.1726 41.9773 14.1578 41.5185 14.3187C40.6998 14.606 37.3965 14.8845 36.4312 14.7476L36.2129 14.7166L35.9066 15.1103C35.17 16.0571 34.316 16.8146 33.6093 17.1478C32.4839 17.6784 31.5094 17.3131 30.9383 16.1466C30.5333 15.3194 30.3398 14.3657 30.2715 12.8607C30.2499 12.3842 30.2455 11.6571 30.2617 11.245C30.2779 10.8329 30.2776 10.5118 30.2611 10.5315C30.2446 10.5512 30.1712 10.8011 30.0978 11.0869C29.7116 12.592 28.9965 13.8211 28.1749 14.3919C27.7771 14.6683 27.4851 14.7714 26.9984 14.8073C26.0586 14.8766 25.201 14.4316 24.7324 13.6316C24.6236 13.4459 24.519 13.2939 24.4999 13.2939C24.4809 13.2939 24.3215 13.3502 24.1458 13.4189C22.8796 13.9143 22.0019 13.8329 21.3887 13.1632C21.0935 12.8407 20.9594 12.5042 20.8239 11.7466C20.7695 11.4422 20.7153 11.1834 20.7034 11.1716C20.6916 11.1597 20.4688 11.4547 20.2083 11.827C19.5131 12.8208 19.1243 13.3072 18.5512 13.9004C17.2606 15.2363 16.0627 15.7599 14.8197 15.5317C14.352 15.4458 13.8423 15.1836 13.5301 14.8682C13.2012 14.536 12.8231 13.8041 12.6462 13.1571C12.5269 12.7208 12.5232 12.7151 12.2481 12.5389C11.6921 12.1829 10.4242 11.6763 9.86956 11.5885L9.66369 11.5559L9.32521 12.1574C9.13904 12.4882 8.87908 12.975 8.74751 13.2393C7.74628 15.2501 6.24162 16.6935 4.35457 17.4531C3.4903 17.801 2.47497 17.9669 1.77067 17.8753ZM2.87741 17.1439C3.94777 16.8899 5.19037 16.0747 6.34879 14.8666C7.3057 13.8686 7.94351 12.8518 8.16769 11.9667C8.2913 11.4787 8.29953 11.4914 7.80504 11.4093C6.35037 11.1677 3.78328 12.2826 2.08193 13.8948C0.821168 15.0895 0.451721 16.0868 1.02743 16.7414C1.19089 16.9272 1.49598 17.1073 1.75432 17.1703C2.01217 17.2333 2.55474 17.2205 2.87741 17.1439ZM35.6046 13.4673C35.6764 13.0851 35.549 12.1139 35.3407 11.4552C34.9857 10.333 34.3113 9.92741 33.4665 10.3279C32.442 10.8135 32.3234 11.761 33.1835 12.5882C33.5507 12.9414 34.2795 13.3232 34.9622 13.5201C35.5459 13.6885 35.5633 13.687 35.6046 13.4673ZM40.8839 13.4975C42.2115 13.1663 43.2531 12.3485 43.9689 11.0753L44.2156 10.6365L44.1882 10.0159C44.1573 9.31662 44.0704 8.97515 43.8438 8.66286C43.6296 8.36771 43.4168 8.24892 43.1018 8.24869C42.7868 8.24843 42.511 8.40923 42.1322 8.81405C40.9929 10.0315 39.9525 12.9318 40.4379 13.5372C40.4665 13.5728 40.5269 13.5914 40.5721 13.5784C40.6172 13.5654 40.7576 13.529 40.8839 13.4975ZM14.854 12.1593C15.6751 11.7582 16.6155 10.4887 16.6697 9.70794C16.7076 9.16337 16.4655 8.93674 15.8899 8.97779C15.1635 9.0296 14.387 9.68154 13.9055 10.6438C13.5989 11.2567 13.4504 11.8983 13.5792 12.054C13.837 12.3657 14.3455 12.4077 14.854 12.1593ZM25.8726 11.5625C26.1662 11.413 26.7852 10.8979 27.0723 10.5641C27.8971 9.60537 28.1725 8.79367 27.7858 8.46155C27.6754 8.36678 27.6059 8.34618 27.4706 8.3681C26.7459 8.48551 25.5735 10.3842 25.5698 11.4465C25.5689 11.6921 25.5971 11.7029 25.8726 11.5625Z" fill="black"/>
</svg>
